<svg width="20" height="20" viewBox="0 0 20 20" xmlns="http://www.w3.org/2000/svg"><path d="M10 0C4.48625 0 0 4.48625 0 10s4.48625 10 10 10 10-4.48625 10-10S15.51375 0 10 0zm4.5875 14.435c-.1225.17375-.315.26625-.51125.26625-.125 0-.25-.03625-.35875-.11375-2.34375-1.6475-6.2425-1.73875-8.875-1.125-.33375.07875-.6725-.13125-.75-.4675-.0775-.33625.13-.6725.4675-.75125 2.89375-.67 7.21875-.5475 9.875 1.32125.2825.19875.35.5875.1525.87zm1.22-2.43875c-.1225.17-.31375.26-.5075.26-.1275 0-.25375-.0375-.365-.1175C12.21625 10.1875 8.87625 9.7025 4.41875 10.6125c-.33625.06625-.66875-.14875-.7375-.4875-.07-.3375.14875-.66875.48625-.7375 4.82125-.98375 8.47375-.43375 11.49625 1.735.28.2025.345.5925.14375.87375zm1.2325-3.275c-.12125.17875-.31875.27375-.5175.27375-.12125 0-.24375-.035-.35125-.1075-3.44625-2.33875-8.685-2.35-12.07625-1.15-.325.1125-.6825-.05625-.7975-.3825-.115-.325.055-.6825.38125-.7975 3.68875-1.30375 9.405-1.27625 13.19625 1.295.285.19375.3575.5825.165.86875z" fill-rule="nonzero"/></svg>