<svg width="20" height="21" viewBox="0 0 20 21" xmlns="http://www.w3.org/2000/svg"><path d="M4.4725 6.25V20H0V6.25h4.4725zm6.25 0v2.62875c.545-.7325 2.19875-2.62875 4.80625-2.62875.305 0 .565.03375.8025.08125.06125.01.12125.02125.18125.035.05.01375.095.03.1425.045 1.92125.50125 3.345 2.2325 3.345 4.31V20h-4.47125v-8.75C14.1025 7.7925 10.7225 12.5 10.7225 12.5V20H6.25V6.25h4.4725zM2.1875 0C3.39562289 0 4.375.97937711 4.375 2.1875c0 1.20812289-.97937711 2.1875-2.1875 2.1875C.97937711 4.375 0 3.39562289 0 2.1875 0 .97937711.97937711 0 2.1875 0z" fill-rule="nonzero"/></svg>